HIERARCHY
ROOT Hips
{
	OFFSET	0.000000	0.000000	0.000000
	CHANNELS 6 Xposition Yposition Zposition Zrotation Xrotation Yrotation
	JOINT LeftUpLeg
	{
		OFFSET	12.830505	-7.049846	-1.643436
		CHANNELS 3 Zrotation Xrotation Yrotation
		JOINT LeftLeg
		{
			OFFSET	0.620834	-39.957500	-1.919341
			CHANNELS 3 Zrotation Xrotation Yrotation
			JOINT LeftFoot
			{
				OFFSET	-0.413890	-44.704761	-3.870325
				CHANNELS 3 Zrotation Xrotation Yrotation
				JOINT LeftFootHeel
				{
					OFFSET	0.164738	-8.918193	-6.555130
					CHANNELS 3 Zrotation Xrotation Yrotation
					End Site
					{
						OFFSET	-0.604053	0.000000	21.044330
					}
				}
			}
		}
	}
	JOINT RightUpLeg
	{
		OFFSET	-12.830505	-7.049846	-1.643436
		CHANNELS 3 Zrotation Xrotation Yrotation
		JOINT RightLeg
		{
			OFFSET	-0.620834	-39.957500	-1.919341
			CHANNELS 3 Zrotation Xrotation Yrotation
			JOINT RightFoot
			{
				OFFSET	0.413890	-44.704761	-3.870325
				CHANNELS 3 Zrotation Xrotation Yrotation
				JOINT RightFootHeel
				{
					OFFSET	-0.164738	-8.918193	-6.555130
					CHANNELS 3 Zrotation Xrotation Yrotation
					End Site
					{
						OFFSET	0.604053	0.000000	21.044330
					}
				}
			}
		}
	}
	JOINT Spine
	{
		OFFSET	0.000000	12.498170	1.820647
		CHANNELS 3 Zrotation Xrotation Yrotation
		JOINT Spine1
		{
			OFFSET	0.000000	7.620000	0.000000
			CHANNELS 3 Zrotation Xrotation Yrotation
			JOINT LeftShoulder
			{
				OFFSET	9.167800	29.136339	-5.551221
				CHANNELS 3 Zrotation Xrotation Yrotation
				JOINT LeftArm
				{
					OFFSET	12.133453	-3.880866	1.461963
					CHANNELS 3 Zrotation Xrotation Yrotation
					JOINT LeftForeArm
					{
						OFFSET	2.507115	-31.664908	-1.069404
						CHANNELS 3 Zrotation Xrotation Yrotation
						JOINT LeftHand
						{
							OFFSET	4.116172	-24.512624	5.009439
							CHANNELS 3 Zrotation Xrotation Yrotation
							End Site
							{
								OFFSET	-0.213136	-10.931856	2.182134
							}
						}
					}
				}
			}
			JOINT RightShoulder
			{
				OFFSET	-9.167800	29.136339	-5.551221
				CHANNELS 3 Zrotation Xrotation Yrotation
				JOINT RightArm
				{
					OFFSET	-12.133453	-3.880866	1.461963
					CHANNELS 3 Zrotation Xrotation Yrotation
					JOINT RightForeArm
					{
						OFFSET	-2.507115	-31.664908	-1.069404
						CHANNELS 3 Zrotation Xrotation Yrotation
						JOINT RightHand
						{
							OFFSET	-4.116172	-24.512624	5.009439
							CHANNELS 3 Zrotation Xrotation Yrotation
							End Site
							{
								OFFSET	0.213136	-10.931856	2.182134
							}
						}
					}
				}
			}
			JOINT Neck
			{
				OFFSET	0.000000	32.926272	-3.635654
				CHANNELS 3 Zrotation Xrotation Yrotation
				JOINT Head
				{
					OFFSET	0.000000	12.481178	4.646143
					CHANNELS 3 Zrotation Xrotation Yrotation
					End Site
					{
						OFFSET	0.000000	17.715204	-2.222063
					}
				}
			}
		}
	}
}
MOTION
Frames:     9
Frame Time: 0.016667
10.574259	84.454727	15.688539	2.773582	0.124666	-10.039811	10.027998	-15.325721	27.956171	-7.345432	73.764786	21.972166	-17.490444	-33.487812	8.330694	0.	0.	0.	-11.439364	-51.884552	1.220325	-28.144209	65.209450	42.265305	8.927033	-21.684954	8.320467	0.	0.	0.	0.000000	-0.000001	0.000000	20.818348	9.867869	-22.345663	9.170236	-11.461967	1.945506	-0.590625	18.512375	13.586875	-109.754936	-19.131523	-82.669388	2.832136	28.387838	-21.623375	2.472343	14.146305	-2.553073	30.097380	11.828802	-21.205551	-0.515742	-19.128998	-34.558407	20.721294	-7.173227	-6.217992	21.799252	-17.170525	1.770517	-30.252663	-20.841387	39.750935	
10.574259	84.454727	15.688539	2.773582	0.124666	-10.039811	10.027998	-15.325721	27.956171	-7.345432	73.764786	21.972166	-17.490444	-33.487812	8.330694	0.	0.	0.	-11.439364	-51.884552	1.220325	-28.144209	65.209450	42.265305	8.927033	-21.684954	8.320467	0.	0.	0.	0.000000	-0.000001	0.000000	18.295763	9.346413	-16.270071	10.190326	-11.116087	-3.962760	-0.590625	18.512377	13.586877	-109.754936	-19.131527	-82.669388	2.832138	28.387835	-21.623381	6.144397	15.033588	-8.480379	30.097380	11.828801	-21.205549	-0.515741	-19.129002	-34.558403	18.622955	-9.333146	0.061475	20.591240	-16.637714	-0.905201	-30.181797	-20.101656	35.507988	
10.784113	85.354072	15.635454	0.678784	-0.464654	-1.498914	11.391080	-15.359602	24.299469	0.541943	71.425262	12.212514	-16.158232	-32.493797	8.197038	0.	0.	0.	-14.241327	-45.762985	-3.944592	-24.225449	63.832264	37.793751	8.222669	-23.651335	4.181454	0.	0.	0.	0.000000	0.000000	-0.000001	18.772619	6.557195	-17.649139	5.595916	-7.347160	1.750186	0.415745	22.818258	18.591290	-105.075661	-18.424248	-73.838745	6.401080	17.822111	-20.789522	3.443383	14.971309	-1.888850	25.722603	11.510773	-19.653173	-2.765622	-21.662535	-36.713425	19.763075	-7.716598	-6.300386	17.386614	-15.226481	-1.646715	-28.782330	-21.303469	26.913332	
10.858553	85.720077	15.580876	-0.101061	-0.826043	1.391727	11.904200	-15.367468	23.324825	3.443326	70.461449	8.806051	-15.664585	-32.126781	8.135173	0.	0.	0.	-14.681961	-43.501778	-5.164212	-22.273558	63.213970	35.602230	7.955799	-24.098476	2.776568	0.	0.	0.	0.000000	-0.000000	0.000001	18.358210	5.658787	-16.556793	5.159042	-6.635671	2.269077	1.062497	22.147211	18.699165	-104.070763	-18.097162	-72.468529	7.753105	16.043013	-23.223608	3.874060	14.546433	-1.237696	23.676573	12.091559	-19.677071	-4.118002	-22.385599	-37.828724	19.495886	-7.535801	-6.226500	13.002541	-12.963920	4.187830	-28.126743	-18.534672	16.015446	
10.681658	87.208881	16.166612	-1.582345	-1.698015	8.112494	13.161776	-15.435068	21.393520	9.792688	68.033279	1.267710	-14.718270	-31.081770	7.668768	0.	0.	0.	-15.106587	-38.088009	-7.610254	-17.556456	61.328686	30.321335	7.319218	-24.777830	-0.466780	0.	0.	0.	-0.000000	-0.000000	0.000000	17.587585	4.657832	-14.561784	4.708723	-6.321943	3.498373	1.789906	19.229628	18.138651	-102.537300	-17.165218	-72.660286	5.722303	18.907982	-25.213497	4.625079	12.198804	0.441908	18.989487	14.641238	-20.052471	-7.958675	-24.209377	-41.749134	18.935823	-6.729542	-6.827940	11.569776	-12.780375	1.130401	-26.962982	-17.489061	11.365728	
10.428409	88.728401	16.049841	-2.232678	-2.230996	11.918285	14.701736	-15.264126	23.654955	15.730944	65.002975	-6.284252	-13.501573	-29.248381	6.584805	0.	0.	0.	-13.524868	-33.305157	-5.762547	-12.411570	58.362553	24.513325	6.776587	-24.956274	-3.961929	0.	0.	0.	0.000000	0.000000	0.000000	14.906624	6.210527	-7.558948	6.604059	-8.071042	-1.630600	-0.835207	14.505324	19.717936	-98.682159	-15.200036	-72.387642	5.314560	19.602188	-26.296169	8.249907	8.734150	-4.523168	16.486229	16.234379	-20.539059	-10.015542	-25.163471	-44.508465	18.277227	-6.281728	-7.811327	10.283817	-13.498445	1.409556	-26.170666	-15.774485	2.136670	
11.163658	90.752269	17.164204	-4.003860	-5.451204	24.645542	15.919421	-15.751984	17.192471	20.617014	61.586155	-13.830564	-12.703945	-27.516626	6.044273	0.	0.	0.	-14.068454	-24.127275	-12.951951	-7.346928	54.171597	18.808084	5.881032	-24.241005	-7.857150	0.	0.	0.	0.000000	0.000000	-0.000004	14.772957	8.663250	-7.709620	5.478719	-8.848162	2.623471	1.141448	5.828583	7.084549	-105.079185	-19.269735	-83.756706	4.042111	19.160913	-25.882090	4.578205	2.865309	-0.734274	7.512907	20.893785	-25.790798	-12.482891	-28.260866	-50.524185	14.426189	-5.498724	-11.984642	3.782816	-16.395262	-2.632737	-16.183426	-13.829853	-2.867663	
12.366159	93.613286	17.671113	-4.503437	-8.041647	38.435905	16.666979	-17.425270	14.823368	27.288340	55.277504	-24.797897	-11.907634	-22.859818	3.860531	0.	0.	0.	-12.753525	-13.588868	-16.598497	0.399293	45.884300	8.738861	5.682416	-21.659534	-11.811859	0.	0.	0.	0.000000	-0.000000	-0.000006	9.308297	11.295313	-5.252724	6.024066	-8.472872	1.747826	-0.852315	-7.793560	-0.926067	-106.218185	-19.283922	-84.241768	1.865848	16.018757	-19.959820	2.605331	-2.995979	-2.757718	-5.533106	24.657389	-32.797379	-8.959135	-33.161491	-45.661411	10.035013	-4.254794	-13.501966	-0.931503	-15.751361	-13.537354	4.146145	-13.651733	-12.557424	
13.038562	93.699454	19.717396	-3.525423	-8.752988	46.802280	15.785197	-18.492052	14.564228	34.978905	51.417233	-36.350624	-13.108556	-21.776886	3.341695	0.	0.	0.	-12.093280	-7.823761	-17.078629	4.542786	40.402199	1.050904	6.440310	-19.638865	-12.872904	0.	0.	0.	0.000000	0.000001	-0.000006	11.049464	10.965324	-13.737185	0.661165	-5.780615	8.472919	3.000998	-11.090878	-8.347301	-113.807594	-23.211123	-88.023491	-1.054359	17.927559	-17.239689	-4.916374	-5.401481	3.624957	-18.473806	24.971699	-35.751724	-3.867775	-36.243023	-38.406677	7.590598	-3.504229	-12.793750	-5.971649	-11.642365	-12.924544	9.461470	-16.720739	-14.061543	
